<svg width="273" height="186" viewBox="0 0 273 186" fill="none" xmlns="http://www.w3.org/2000/svg">
<path d="M261.721 102.808C256.018 102.808 251.395 107.379 251.395 112.972C251.395 114.095 251.578 115.218 251.965 116.26L191.066 163.755C189.07 162.392 186.727 161.65 184.243 161.65C183.55 161.65 182.837 161.71 182.145 161.83L149.842 99.079C151.654 97.1944 152.693 94.6884 152.693 92.0621C152.693 86.4485 148.049 81.8975 142.367 81.8975C137.621 81.8975 133.568 85.0852 132.386 89.4558L80.0619 93.5657C78.4325 89.9369 74.7866 87.5311 70.6316 87.5311C69.8577 87.5311 69.0837 87.6113 68.3301 87.7918L33.3181 33.3605C37.3101 29.7518 39.6524 24.5993 39.6524 19.2063C39.6524 8.62079 30.8943 0 20.1402 0C9.38603 0 0.62793 8.62079 0.62793 19.2063C0.62793 29.7919 9.38603 38.4126 20.1402 38.4126C22.6658 38.4126 25.171 37.9315 27.5133 36.9892L62.5253 91.4406C61.0996 93.2249 60.3052 95.4302 60.3052 97.7157C60.3052 103.329 64.9491 107.88 70.6316 107.88C75.3773 107.88 79.4305 104.693 80.6118 100.322L132.936 96.192C134.566 99.8208 138.212 102.227 142.367 102.227C142.815 102.227 143.263 102.207 143.691 102.146L176.014 164.898C173.672 167.103 172.307 170.15 172.307 173.398C172.307 179.874 177.664 185.147 184.243 185.147C190.821 185.147 196.178 179.874 196.178 173.398C196.178 171.915 195.893 170.451 195.323 169.068L256.222 121.573C257.851 122.596 259.746 123.137 261.721 123.137C267.424 123.137 272.048 118.566 272.048 112.972C272.048 107.359 267.424 102.808 261.721 102.808ZM28.939 31.0549C28.6539 31.2754 28.4094 31.5361 28.2669 31.8368C27.9206 31.8568 27.5947 31.937 27.2689 32.1175C25.0895 33.2803 22.6454 33.9018 20.1402 33.9018C11.9116 33.9018 5.21066 27.3059 5.21066 19.2063C5.21066 11.1068 11.9116 4.51088 20.1402 4.51088C28.3687 4.51088 35.0697 11.1068 35.0697 19.2063C35.0493 23.8575 32.7681 28.2882 28.939 31.0549ZM76.355 98.0766C76.1717 101.044 73.6461 103.369 70.6316 103.369C67.4747 103.369 64.888 100.843 64.888 97.7157C64.888 96.0717 65.6212 94.5079 66.9044 93.4253C67.1284 93.2249 67.3117 93.0043 67.4543 92.7637C67.7394 92.7437 68.0246 92.6836 68.2894 92.5633C69.043 92.2425 69.8169 92.0621 70.6316 92.0621C73.3202 92.0621 75.6217 93.8664 76.2328 96.4526C76.2939 96.7333 76.4161 96.9939 76.579 97.2345C76.4568 97.4952 76.3753 97.7758 76.355 98.0766ZM145.666 96.6932C145.422 96.8536 145.218 97.0741 145.055 97.3147C144.77 97.2947 144.485 97.3348 144.2 97.435C143.589 97.6355 142.978 97.7357 142.367 97.7357C139.678 97.7357 137.377 95.9314 136.766 93.3451C136.704 93.0645 136.582 92.8038 136.419 92.5633C136.541 92.3026 136.623 92.022 136.643 91.7212C136.827 88.7541 139.352 86.4285 142.367 86.4285C145.524 86.4285 148.11 88.9546 148.11 92.0821C148.11 93.9065 147.194 95.6307 145.666 96.6932ZM184.263 180.636C180.21 180.636 176.91 177.388 176.91 173.398C176.91 170.972 178.132 168.727 180.189 167.384C180.454 167.203 180.658 167.003 180.841 166.742C181.147 166.762 181.452 166.722 181.758 166.602C182.572 166.301 183.428 166.161 184.263 166.161C186.218 166.161 188.051 166.903 189.436 168.266C189.66 168.486 189.925 168.647 190.19 168.767C190.231 169.068 190.333 169.368 190.516 169.629C191.229 170.772 191.616 172.075 191.616 173.398C191.595 177.388 188.316 180.636 184.263 180.636ZM261.721 118.626C260.255 118.626 258.849 118.085 257.79 117.082C257.566 116.882 257.322 116.722 257.057 116.621C257.016 116.341 256.914 116.06 256.772 115.819C256.263 114.957 255.998 113.975 255.998 112.993C255.998 109.885 258.564 107.339 261.742 107.339C264.899 107.339 267.485 109.865 267.485 112.993C267.485 116.12 264.899 118.626 261.721 118.626Z" fill="#FCF463"/>
</svg>
