<?xml version="1.0" encoding="utf-8"?>
<!-- Generator: Adobe Illustrator 25.4.1, SVG Export Plug-In . SVG Version: 6.00 Build 0)  -->
<svg version="1.1" id="base" xmlns="http://www.w3.org/2000/svg" xmlns:xlink="http://www.w3.org/1999/xlink" x="0px" y="0px"
	 viewBox="0 0 197 141" style="enable-background:new 0 0 197 141;" xml:space="preserve">
<style type="text/css">
	.st0{fill:#FFFFFF;}
	.st1{fill:#FCF463;}
</style>
<g>
	<circle class="st0" cx="114.3" cy="7.7" r="2.6"/>
	<circle class="st0" cx="170.4" cy="25.1" r="2.6"/>
	<circle class="st0" cx="143.6" cy="86.4" r="2.6"/>
	<circle class="st0" cx="9.1" cy="92.4" r="2.6"/>
	<path class="st1" d="M183.8,74.5c-3.7,0-6.7,3-6.7,6.7c0,0.7,0.1,1.5,0.4,2.2L138,114.6c-1.7-1.2-3.8-1.6-5.8-1.3l-20.9-41.3
		c2.5-2.7,2.4-6.9-0.3-9.5c-2.7-2.5-6.9-2.4-9.5,0.3c-0.8,0.8-1.3,1.8-1.6,2.8l-33.8,2.7c-1.1-2.4-3.5-4-6.1-4c-0.5,0-1,0.1-1.5,0.2
		L35.9,28.9c5.1-4.7,5.5-12.7,0.8-17.8S24,5.6,18.8,10.3S13.4,23,18.1,28.1c3.6,3.9,9.1,5.1,14,3.1l22.7,35.8
		c-2.3,2.9-1.8,7.1,1.1,9.4c2.9,2.3,7.1,1.8,9.4-1.1c0.5-0.7,1-1.5,1.2-2.4l33.9-2.7c1.1,2.4,3.5,4,6.1,4c0.3,0,0.6,0,0.9-0.1
		l20.9,41.3c-3.1,2.9-3.2,7.8-0.3,10.9c2.9,3.1,7.8,3.2,10.9,0.3c2.3-2.2,3-5.5,1.9-8.5l39.4-31.2c3.1,2,7.3,1,9.2-2.1
		c2-3.1,1-7.3-2.1-9.2C186.3,74.9,185,74.6,183.8,74.5L183.8,74.5z M33,27.3c-0.2,0.1-0.3,0.3-0.4,0.5c-0.2,0-0.4,0.1-0.6,0.1
		c-4.7,2.7-10.6,1.1-13.3-3.6s-1.1-10.6,3.6-13.3s10.6-1.1,13.3,3.6C38,19,36.9,24.4,33,27.3z M63.7,71.4c-0.1,2-1.9,3.6-3.9,3.5
		c-2-0.1-3.6-1.9-3.5-3.9c0.1-1,0.5-1.9,1.3-2.6c0.1-0.1,0.3-0.3,0.3-0.4c0.2,0,0.4-0.1,0.5-0.1c0.5-0.2,1-0.3,1.5-0.3
		c1.7,0,3.2,1.2,3.6,2.9c0,0.2,0.1,0.4,0.2,0.5C63.8,71.1,63.7,71.2,63.7,71.4L63.7,71.4z M108.6,70.5c-0.2,0.1-0.3,0.2-0.4,0.4
		c-0.2,0-0.4,0-0.6,0.1c-0.4,0.1-0.8,0.2-1.2,0.2c-1.7,0-3.3-1.2-3.6-2.9c0-0.2-0.1-0.4-0.2-0.5c0.1-0.2,0.1-0.4,0.2-0.6
		c0.1-2,1.9-3.6,3.9-3.5c2,0.1,3.6,1.9,3.5,3.9C110.1,68.8,109.5,69.9,108.6,70.5z M133.6,125.7c-2.6,0-4.7-2.2-4.7-4.8
		c0-1.6,0.8-3.1,2.1-3.9c0.2-0.1,0.3-0.3,0.4-0.4c0.2,0,0.4,0,0.6-0.1c0.5-0.2,1.1-0.3,1.6-0.3c1.3,0,2.5,0.5,3.4,1.4
		c0.1,0.1,0.3,0.2,0.5,0.3c0,0.2,0.1,0.4,0.2,0.6c1.4,2.2,0.7,5.1-1.5,6.5c-0.7,0.5-1.6,0.7-2.5,0.7H133.6z M183.8,84.9
		c-0.9,0-1.9-0.4-2.6-1c-0.1-0.1-0.3-0.2-0.5-0.3c0-0.2-0.1-0.4-0.2-0.5c-1-1.8-0.4-4,1.4-5.1c1.8-1,4-0.4,5.1,1.4
		c1,1.8,0.4,4-1.4,5.1C185,84.8,184.4,84.9,183.8,84.9L183.8,84.9z"/>
	<path class="st0" d="M108,136L108,136L9.1,92.5H8.9l0.2-0.2L114.3,7.5l0,0L170.5,25l-0.1,0.1l-26.7,61.4h0.3l-0.1,0.2L108,136z
		 M9.5,92.4l98.4,43.3l35.7-49L9.5,92.4z M114.3,7.8L9.4,92.3l134.2-5.7v-0.1L114.4,7.9h0.1L114.3,7.8z M114.6,7.8l29.1,78.3
		l26.6-61L114.6,7.8z"/>
</g>
</svg>
