<svg width="258" height="203" viewBox="0 0 258 203" fill="none" xmlns="http://www.w3.org/2000/svg">
<g opacity="0.75">

<path d="M166.425 7.89906C168.641 7.89906 170.437 6.13079 170.437 3.94953C170.437 1.76826 168.641 0 166.425 0C164.209 0 162.412 1.76826 162.412 3.94953C162.412 6.13079 164.209 7.89906 166.425 7.89906Z" fill="white"/>
<path d="M253.068 34.4435C255.284 34.4435 257.081 32.6752 257.081 30.494C257.081 28.3127 255.284 26.5444 253.068 26.5444C250.852 26.5444 249.056 28.3127 249.056 30.494C249.056 32.6752 250.852 34.4435 253.068 34.4435Z" fill="white"/>
<path d="M156.012 202.899C158.228 202.899 160.025 201.131 160.025 198.95C160.025 196.768 158.228 195 156.012 195C153.796 195 152 196.768 152 198.95C152 201.131 153.796 202.899 156.012 202.899Z" fill="white"/>
<path d="M211.743 127.648C213.959 127.648 215.755 125.879 215.755 123.698C215.755 121.517 213.959 119.749 211.743 119.749C209.527 119.749 207.731 121.517 207.731 123.698C207.731 125.879 209.527 127.648 211.743 127.648Z" fill="white"/>
<path d="M4.01243 136.69C6.22844 136.69 8.02487 134.921 8.02487 132.74C8.02487 130.559 6.22844 128.791 4.01243 128.791C1.79643 128.791 0 130.559 0 132.74C0 134.921 1.79643 136.69 4.01243 136.69Z" fill="white"/>
<path d="M156.709 199L156.607 198.96L3.99219 132.881L3.58484 132.901L3.93109 132.64L166.384 3.78955L166.465 3.8096L253.272 30.4138L253.211 30.5541L211.844 123.839L212.333 123.819L212.15 124.06L156.709 199ZM4.64396 132.861L156.607 198.66L211.743 124.14L4.64396 132.861ZM166.445 4.11032L4.44028 132.58L211.641 123.859L211.6 123.759L166.567 4.29076L166.771 4.21057L166.445 4.11032ZM166.852 4.23061L211.763 123.318L252.865 30.5742L166.852 4.23061Z" fill="white"/>
</g>
</svg>
