<svg width="273" height="186" viewBox="0 0 273 186" fill="none" xmlns="http://www.w3.org/2000/svg">
<path d="M261.721 103.634C256.018 103.634 251.395 108.205 251.395 113.799C251.395 114.921 251.578 116.044 251.965 117.087L191.066 164.581C189.07 163.218 186.728 162.476 184.243 162.476C183.55 162.476 182.837 162.536 182.145 162.656L149.842 99.9052C151.654 98.0206 152.693 95.5146 152.693 92.8882C152.693 87.2747 148.049 82.7237 142.367 82.7237C137.621 82.7237 133.568 85.9114 132.387 90.2819L80.062 94.3919C78.4326 90.7631 74.7868 88.3573 70.6318 88.3573C69.8578 88.3573 69.0838 88.4375 68.3302 88.6179L33.3182 34.1866C37.3102 30.5779 39.6525 25.4255 39.6525 20.0325C39.6525 9.44696 30.8944 0.826172 20.1403 0.826172C9.38615 0.826172 0.628052 9.44696 0.628052 20.0325C0.628052 30.618 9.38615 39.2388 20.1403 39.2388C22.6659 39.2388 25.1711 38.7577 27.5134 37.8154L62.5254 92.2667C61.0997 94.051 60.3054 96.2563 60.3054 98.5419C60.3054 104.155 64.9492 108.706 70.6318 108.706C75.3774 108.706 79.4306 105.519 80.6119 101.148L132.937 97.0182C134.566 100.647 138.212 103.053 142.367 103.053C142.815 103.053 143.263 103.033 143.691 102.973L176.014 165.724C173.672 167.929 172.307 170.977 172.307 174.224C172.307 180.7 177.664 185.973 184.243 185.973C190.821 185.973 196.178 180.7 196.178 174.224C196.178 172.741 195.893 171.277 195.323 169.894L256.222 122.399C257.852 123.422 259.746 123.963 261.721 123.963C267.424 123.963 272.048 119.392 272.048 113.799C272.048 108.185 267.424 103.634 261.721 103.634ZM28.9391 31.8811C28.654 32.1016 28.4096 32.3622 28.267 32.663C27.9207 32.683 27.5949 32.7632 27.269 32.9436C25.0896 34.1064 22.6455 34.7279 20.1403 34.7279C11.9117 34.7279 5.21078 28.132 5.21078 20.0325C5.21078 11.933 11.9117 5.33705 20.1403 5.33705C28.3688 5.33705 35.0698 11.933 35.0698 20.0325C35.0494 24.6837 32.7682 29.1144 28.9391 31.8811ZM76.3551 98.9027C76.1718 101.87 73.6462 104.195 70.6318 104.195C67.4748 104.195 64.8881 101.669 64.8881 98.5419C64.8881 96.8979 65.6213 95.3341 66.9045 94.2515C67.1285 94.051 67.3118 93.8305 67.4544 93.5899C67.7395 93.5699 68.0247 93.5097 68.2895 93.3894C69.0431 93.0687 69.8171 92.8882 70.6318 92.8882C73.3203 92.8882 75.6218 94.6926 76.2329 97.2788C76.294 97.5595 76.4162 97.8201 76.5791 98.0607C76.4569 98.3213 76.3755 98.602 76.3551 98.9027ZM145.666 97.5194C145.422 97.6798 145.218 97.9003 145.055 98.1409C144.77 98.1208 144.485 98.1609 144.2 98.2612C143.589 98.4617 142.978 98.5619 142.367 98.5619C139.678 98.5619 137.377 96.7576 136.766 94.1713C136.705 93.8906 136.582 93.63 136.419 93.3894C136.542 93.1288 136.623 92.8481 136.643 92.5474C136.827 89.5802 139.352 87.2546 142.367 87.2546C145.524 87.2546 148.11 89.7807 148.11 92.9083C148.11 94.7327 147.194 96.4568 145.666 97.5194ZM184.263 181.462C180.21 181.462 176.91 178.214 176.91 174.224C176.91 171.799 178.132 169.553 180.19 168.21C180.454 168.029 180.658 167.829 180.841 167.568C181.147 167.588 181.452 167.548 181.758 167.428C182.573 167.127 183.428 166.987 184.263 166.987C186.218 166.987 188.051 167.729 189.436 169.092C189.66 169.313 189.925 169.473 190.19 169.593C190.231 169.894 190.333 170.195 190.516 170.455C191.229 171.598 191.616 172.901 191.616 174.224C191.595 178.214 188.316 181.462 184.263 181.462ZM261.721 119.452C260.255 119.452 258.85 118.911 257.79 117.909C257.566 117.708 257.322 117.548 257.057 117.447C257.016 117.167 256.915 116.886 256.772 116.646C256.263 115.783 255.998 114.801 255.998 113.819C255.998 110.711 258.564 108.165 261.742 108.165C264.899 108.165 267.485 110.691 267.485 113.819C267.485 116.946 264.899 119.452 261.721 119.452Z" fill="#FCF463"/>
</svg>
